:FULLY-SPECIFIED
:FORCE-ALL-JOINTS-BE-3DOF
:DEGREES
114
root 9.34075 16.0764 -21.4311 4.52974 3.39741 5.28752
lfemur 11.6914 0.548559 -29.0957
ltibia 4.33011 0 0
lfoot -18.3089 1.67703 0
ltoes -3.1092 0 0
rfemur -40.6364 9.23511 7.75918
rtibia 33.0913 0 0
rfoot -25.1452 -13.9814 0
rtoes -21.5214 0 0
lowerback -8.03179 -3.29804 -6.30283
upperback -0.825433 -3.93067 2.17184
thorax 4.21947 -2.0748 5.34176
lowerneck -19.8799 -5.20528 -13.2951
upperneck 21.0931 -5.90064 10.874
head 10.8137 -2.50502 5.27498
lclavicle -4.59258e-14 3.16283e-15 0
lhumerus -25.6834 -26.1577 94.4089
lradius 40.1303 0 0
lwrist 11.391 0 0
lhand -13.2012 -25.1187 0
lfingers 7.12502 0 0
lthumb 12.9019 4.49863 0
rclavicle -4.59258e-14 3.16283e-15 0
rhumerus -46.0616 8.41632 -83.8767
rradius 35.4836 0 0
rwrist -19.3623 0 0
rhand -29.4882 -22.1373 0
rfingers 7.12502 0 0
rthumb -2.82326 -52.0982 0
115
root 9.33189 16.065 -21.2947 4.6232 3.7525 5.34333
lfemur 12.5523 0.550697 -29.0127
ltibia 3.48313 0 0
lfoot -18.1544 1.37903 0
ltoes -3.36985 0 0
rfemur -40.899 9.51265 7.29596
rtibia 32.2061 0 0
rfoot -25.1194 -14.0021 0
rtoes -21.4908 0 0
lowerback -8.09088 -3.36351 -6.35299
upperback -0.86315 -4.00956 2.14897
thorax 4.22639 -2.11397 5.33379
lowerneck -19.8261 -5.22118 -13.2803
upperneck 21.1302 -5.93546 10.8634
head 10.8213 -2.52287 5.26416
lclavicle -4.73157e-14 2.79141e-15 0
lhumerus -26.104 -26.3628 94.7614
lradius 40.3265 0 0
lwrist 11.4357 0 0
lhand -13.0339 -25.065 0
lfingers 7.12502 0 0
lthumb 13.0629 4.53826 0
rclavicle -4.73157e-14 2.79141e-15 0
rhumerus -46.2052 8.18722 -83.7477
rradius 35.2854 0 0
rwrist -19.2125 0 0
rhand -29.5092 -22.2088 0
rfingers 7.12502 0 0
rthumb -2.8435 -52.1694 0
116
root 9.32234 16.0542 -21.1575 4.71629 4.09957 5.39142
lfemur 13.3727 0.560718 -28.9162
ltibia 2.70376 0 0
lfoot -17.9777 1.09624 0
ltoes -3.63366 0 0
rfemur -41.142 9.77161 6.86381
rtibia 31.3576 0 0
rfoot -25.0762 -14.0089 0
rtoes -21.4498 0 0
lowerback -8.14515 -3.42589 -6.39592
upperback -0.900499 -4.08511 2.12819
thorax 4.23022 -2.15136 5.32457
lowerneck -19.7746 -5.2377 -13.2671
upperneck 21.1607 -5.97072 10.8566
head 10.8273 -2.54053 5.25476
lclavicle -4.85498e-14 2.41798e-15 0
lhumerus -26.5248 -26.5334 95.0964
lradius 40.492 0 0
lwrist 11.4558 0 0
lhand -12.8619 -25.0065 0
lfingers 7.12502 0 0
lthumb 13.2284 4.58222 0
rclavicle -4.85498e-14 2.41798e-15 0
rhumerus -46.3438 7.96445 -83.6216
rradius 35.0894 0 0
rwrist -19.0659 0 0
rhand -29.5296 -22.2826 0
rfingers 7.12502 0 0
rthumb -2.86315 -52.243 0
117
root 9.31208 16.0443 -21.0193 4.80855 4.43765 5.43118
lfemur 14.1484 0.578826 -28.8056
ltibia 1.99969 0 0
lfoot -17.7778 0.830817 0
ltoes -3.89992 0 0
rfemur -41.3653 10.0098 6.46697
rtibia 30.5512 0 0
rfoot -25.0164 -14.0009 0
rtoes -21.3989 0 0
lowerback -8.1941 -3.4849 -6.43101
upperback -0.937208 -4.15706 2.10976
thorax 4.23089 -2.18684 5.3141
lowerneck -19.7255 -5.25493 -13.2557
upperneck 21.184 -6.00643 10.8539
head 10.8315 -2.558 5.24692
lclavicle -4.96128e-14 2.04399e-15 0
lhumerus -26.9433 -26.6671 95.4114
lradius 40.6244 0 0
lwrist 11.4499 0 0
lhand -12.6866 -24.9436 0
lfingers 7.12502 0 0
lthumb 13.3971 4.63032 0
rclavicle -4.96128e-14 2.04399e-15 0
rhumerus -46.4765 7.7491 -83.4988
rradius 34.8963 0 0
rwrist -18.9236 0 0
rhand -29.5492 -22.3584 0
rfingers 7.12502 0 0
rthumb -2.88208 -52.3185 0
118
root 9.30111 16.0353 -20.8803 4.89954 4.76574 5.46199
lfemur 14.8749 0.605223 -28.6802
ltibia 1.37861 0 0
lfoot -17.5538 0.584964 0
ltoes -4.16795 0 0
rfemur -41.5688 10.2251 6.10969
rtibia 29.7924 0 0
rfoot -24.9408 -13.9768 0
rtoes -21.3384 0 0
lowerback -8.23725 -3.54028 -6.45765
upperback -0.973003 -4.22512 2.09395
thorax 4.22833 -2.22027 5.30239
lowerneck -19.6789 -5.27296 -13.2467
upperneck 21.1996 -6.04257 10.8556
head 10.8338 -2.57525 5.24078
lclavicle -5.04893e-14 1.67088e-15 0
lhumerus -27.3569 -26.7611 95.7037
lradius 40.7216 0 0
lwrist 11.4166 0 0
lhand -12.5093 -24.8764 0
lfingers 7.12502 0 0
lthumb 13.5677 4.6824 0
rclavicle -5.04893e-14 1.67088e-15 0
rhumerus -46.6026 7.54228 -83.3794
rradius 34.707 0 0
rwrist -18.7862 0 0
rhand -29.5679 -22.4358 0
rfingers 7.12502 0 0
rthumb -2.90017 -52.3957 0
119
root 9.2894 16.0272 -20.7402 4.9888 5.08288 5.48323
lfemur 15.5481 0.640113 -28.5396
ltibia 0.848185 0 0
lfoot -17.3045 0.360862 0
ltoes -4.43704 0 0
rfemur -41.7526 10.4153 5.79621
rtibia 29.0863 0 0
rfoot -24.8504 -13.9355 0
rtoes -21.2688 0 0
lowerback -8.27409 -3.59176 -6.47525
upperback -1.00761 -4.28903 2.08103
thorax 4.22246 -2.2515 5.28945
lowerneck -19.6352 -5.29186 -13.2401
upperneck 21.2071 -6.07916 10.8619
head 10.8341 -2.59228 5.23648
lclavicle -5.11637e-14 1.3001e-15 0
lhumerus -27.7628 -26.8129 95.9707
lradius 40.781 0 0
lwrist 11.3545 0 0
lhand -12.3312 -24.8054 0
lfingers 7.12502 0 0
lthumb 13.739 4.73828 0
rclavicle -5.11637e-14 1.3001e-15 0
rhumerus -46.7212 7.34512 -83.2636
rradius 34.5221 0 0
rwrist -18.6548 0 0
rhand -29.5856 -22.5146 0
rfingers 7.12502 0 0
rthumb -2.91727 -52.4743 0
120
root 9.27696 16.0203 -20.5993 5.07588 5.38806 5.49429
lfemur 16.1637 0.683699 -28.3831
ltibia 0.416114 0 0
lfoot -17.0292 0.160696 0
ltoes -4.7065 0 0
rfemur -41.9165 10.5783 5.53076
rtibia 28.4385 0 0
rfoot -24.7461 -13.8759 0
rtoes -21.1904 0 0
lowerback -8.30415 -3.63909 -6.48318
upperback -1.04076 -4.34851 2.07125
thorax 4.21322 -2.28041 5.27529
lowerneck -19.5945 -5.31172 -13.2365
upperneck 21.2057 -6.11619 10.8732
head 10.8322 -2.60908 5.23416
lclavicle -5.16208e-14 9.33077e-16 0
lhumerus -28.1586 -26.8201 96.2098
lradius 40.8006 0 0
lwrist 11.262 0 0
lhand -12.1538 -24.7308 0
lfingers 7.12502 0 0
lthumb 13.9097 4.79778 0
rclavicle -5.16208e-14 9.33077e-16 0
rhumerus -46.8315 7.15871 -83.1518
rradius 34.3425 0 0
rwrist -18.5303 0 0
rhand -29.6022 -22.5944 0
rfingers 7.12502 0 0
rthumb -2.93327 -52.5539 0
121
root 9.26375 16.0146 -20.4573 5.16033 5.68033 5.49456
lfemur 16.7174 0.736184 -28.2101
ltibia 0.0900799 0 0
lfoot -16.7266 -0.0133467 0
ltoes -4.97563 0 0
rfemur -42.0605 10.7119 5.31759
rtibia 27.8544 0 0
rfoot -24.6286 -13.7969 0
rtoes -21.1037 0 0
lowerback -8.32692 -3.68198 -6.48085
upperback -1.07217 -4.40328 2.06489
thorax 4.20054 -2.30686 5.25993
lowerneck -19.557 -5.33262 -13.2361
upperneck 21.1952 -6.15365 10.8896
head 10.8281 -2.62562 5.23396
lclavicle -5.18451e-14 5.71259e-16 0
lhumerus -28.5416 -26.7798 96.4185
lradius 40.7779 0 0
lwrist 11.1378 0 0
lhand -11.9783 -24.6529 0
lfingers 7.12502 0 0
lthumb 14.0786 4.86074 0
rclavicle -5.18451e-14 5.71259e-16 0
rhumerus -46.9328 6.98418 -83.0441
rradius 34.169 0 0
rwrist -18.4135 0 0
rhand -29.6174 -22.675 0
rfingers 7.12502 0 0
rthumb -2.94803 -52.6343 0
122
root 9.24978 16.0101 -20.3143 5.24171 5.95868 5.48342
lfemur 17.2049 0.797771 -28.0199
ltibia -0.122234 0 0
lfoot -16.3959 -0.159082 0
ltoes -5.24375 0 0
rfemur -42.1847 10.8139 5.16093
rtibia 27.3392 0 0
rfoot -24.499 -13.6973 0
rtoes -21.0092 0 0
lowerback -8.34192 -3.72018 -6.46764
upperback -1.10158 -4.45307 2.06221
thorax 4.18435 -2.33071 5.24336
lowerneck -19.5229 -5.35464 -13.2392
upperneck 21.1748 -6.19156 10.9114
head 10.8215 -2.6419 5.23601
lclavicle -5.18212e-14 2.16088e-16 0
lhumerus -28.9092 -26.6897 96.594
lradius 40.7106 0 0
lwrist 10.9804 0 0
lhand -11.8061 -24.572 0
lfingers 7.12502 0 0
lthumb 14.2443 4.92697 0
rclavicle -5.18212e-14 2.16088e-16 0
rhumerus -47.0242 6.82262 -82.9408
rradius 34.0023 0 0
rwrist -18.3053 0 0
rhand -29.6313 -22.7561 0
rfingers 7.12502 0 0
rthumb -2.96144 -52.7152 0
123
root 9.23503 16.007 -20.1702 5.31956 6.22215 5.46026
lfemur 17.622 0.868664 -27.812
ltibia -0.213142 0 0
lfoot -16.036 -0.274323 0
ltoes -5.51014 0 0
rfemur -42.2888 10.8821 5.06503
rtibia 26.8983 0 0
rfoot -24.358 -13.576 0
rtoes -20.9072 0 0
lowerback -8.34865 -3.75342 -6.44296
upperback -1.1287 -4.49762 2.06348
thorax 4.16457 -2.35183 5.2256
lowerneck -19.4926 -5.37788 -13.2462
upperneck 21.144 -6.22989 10.939
head 10.8124 -2.6579 5.24046
lclavicle -5.15337e-14 -1.30997e-16 0
lhumerus -29.2587 -26.5471 96.7338
lradius 40.5964 0 0
lwrist 10.7884 0 0
lhand -11.6384 -24.4884 0
lfingers 7.12502 0 0
lthumb 14.4057 4.99631 0
rclavicle -5.15337e-14 -1.30997e-16 0
rhumerus -47.1049 6.67515 -82.8422
rradius 33.8431 0 0
rwrist -18.2066 0 0
rhand -29.6437 -22.8372 0
rfingers 7.12502 0 0
rthumb -2.97336 -52.7962 0
124
root 9.21949 16.0055 -20.0251 5.39344 6.46975 5.42447
lfemur 17.9644 0.949066 -27.5858
ltibia -0.174959 0 0
lfoot -15.646 -0.356885 0
ltoes -5.77413 0 0
rfemur -42.3729 10.9145 5.03412
rtibia 26.5372 0 0
rfoot -24.2066 -13.432 0
rtoes -20.7981 0 0
lowerback -8.34662 -3.78143 -6.40619
upperback -1.15328 -4.53663 2.06896
thorax 4.14114 -2.37006 5.20665
lowerneck -19.466 -5.40241 -13.2574
upperneck 21.1024 -6.26867 10.9726
head 10.8006 -2.67362 5.24744
lclavicle -5.09672e-14 -4.68553e-16 0
lhumerus -29.5877 -26.3495 96.8354
lradius 40.4331 0 0
lwrist 10.5604 0 0
lhand -11.4766 -24.4025 0
lfingers 7.12502 0 0
lthumb 14.5614 5.06857 0
rclavicle -5.09672e-14 -4.68553e-16 0
rhumerus -47.1742 6.54288 -82.7484
rradius 33.6924 0 0
rwrist -18.1183 0 0
rhand -29.6543 -22.9183 0
rfingers 7.12502 0 0
rthumb -2.98366 -52.8771 0
125
root 9.20314 16.0055 -19.8789 5.46289 6.7005 5.37542
lfemur 18.2278 1.03918 -27.3407
ltibia -4.13472e-14 0 0
lfoot -15.2249 -0.404581 0
ltoes -6.03501 0 0
rfemur -42.437 10.9088 5.07245
rtibia 26.2612 0 0
rfoot -24.0456 -13.264 0
rtoes -20.6824 0 0
lowerback -8.33534 -3.80395 -6.35672
upperback -1.17502 -4.56985 2.07892
thorax 4.11399 -2.38529 5.18653
lowerneck -19.4436 -5.42832 -13.2732
upperneck 21.0494 -6.30787 11.0124
head 10.7861 -2.68903 5.25709
lclavicle -5.01062e-14 -7.95139e-16 0
lhumerus -29.8934 -26.0942 96.896
lradius 40.2182 0 0
lwrist 10.2948 0 0
lhand -11.322 -24.3145 0
lfingers 7.12502 0 0
lthumb 14.7102 5.14359 0
rclavicle -5.01062e-14 -7.95139e-16 0
rhumerus -47.2311 6.42693 -82.6598
rradius 33.5509 0 0
rwrist -18.0413 0 0
rhand -29.6632 -22.9988 0
rfingers 7.12502 0 0
rthumb -2.99222 -52.9575 0
126
root 9.1854 16.007 -19.7307 5.53076 6.91893 5.31059
lfemur 18.4267 1.14561 -27.0622
ltibia 0.320766 0 0
lfoot -14.7419 -0.420125 0
ltoes -6.30703 0 0
rfemur -42.4774 10.8597 5.1813
rtibia 26.0728 0 0
rfoot -23.8507 -13.0657 0
rtoes -20.5482 0 0
lowerback -8.31405 -3.82247 -6.29218
upperback -1.1951 -4.59951 2.09396
thorax 4.0815 -2.39853 5.16444
lowerneck -19.4289 -5.45589 -13.2927
upperneck 20.9832 -6.3478 11.0596
head 10.7688 -2.70392 5.26957
lclavicle -4.88613e-14 -1.121e-15 0
lhumerus -30.1876 -25.7584 96.9123
lradius 39.9293 0 0
lwrist 9.96242 0 0
lhand -11.1569 -24.2158 0
lfingers 7.12502 0 0
lthumb 14.8691 5.22836 0
rclavicle -4.88613e-14 -1.121e-15 0
rhumerus -47.2803 6.32372 -82.5778
rradius 33.4066 0 0
rwrist -17.9702 0 0
rhand -29.6689 -23.0833 0
rfingers 7.12502 0 0
rthumb -2.9977 -53.0419 0
127
root 9.16577 16.0099 -19.5797 5.60009 7.13021 5.22857
lfemur 18.579 1.27381 -26.7387
ltibia 0.785603 0 0
lfoot -14.1718 -0.408587 0
ltoes -6.60341 0 0
rfemur -42.4911 10.7652 5.35649
rtibia 25.9676 0 0
rfoot -23.5997 -12.8331 0
rtoes -20.3847 0 0
lowerback -8.2827 -3.83863 -6.21126
upperback -1.21486 -4.62789 2.11428
thorax 4.04234 -2.41086 5.13969
lowerneck -19.4248 -5.48525 -13.315
upperneck 20.9031 -6.38873 11.1148
head 10.749 -2.7181 5.28483
lclavicle -4.7174e-14 -1.45683e-15 0
lhumerus -30.4837 -25.3256 96.8846
lradius 39.5495 0 0
lwrist 9.53958 0 0
lhand -10.9644 -24.0987 0
lfingers 7.12502 0 0
lthumb 15.0543 5.32915 0
rclavicle -4.7174e-14 -1.45683e-15 0
rhumerus -47.3267 6.22878 -82.5034
rradius 33.2481 0 0
rwrist -17.8991 0 0
rhand -29.6703 -23.1759 0
rfingers 7.12502 0 0
rthumb -2.9991 -53.1346 0
